# xmcd
#
# Track frame offsets: 
#        225
#        10569
#        18033
#        29086
#        38505
#        48164
#        56190
#        65446
#        74920
#        86797
#        94776
#        105877
#        115959
#        129241
#        137543
#        150326
#        153635
#        166707
#        176724
#        188920
#        200221
#        210775
#        220468
#        222744
#        232346
#        241175
#        252649
#        259502
#        269396
#        281133
#        290135
#        300101
#        311877
#        322206
#        331260
#        343202
#
# Disc length: 4716 seconds
#
# Revision: 0
# Processed by: cddbd v1.5.1PL0 Copyright (c) Steve Scherf et al.
# Submitted via: ExactAudioCopy v0.95a5
#
DISCID=23126924
DTITLE=Beatles - Complete Edition CD 3
DYEAR=1963
DGENRE=Oldies
TTITLE0=A shot of rythm and blues
TTITLE1=Ooh my soul
TTITLE2=Devil in her heart
TTITLE3=Don앖 ever change
TTITLE4=Too much monkey business
TTITLE5=Lucille
TTITLE6=All I았e got to do
TTITLE7=Not a second time
TTITLE8=Hold me tight
TTITLE9=Little child
TTITLE10=Don앖 bother me
TTITLE11=This boy
TTITLE12=You았e really got a hold on me
TTITLE13=I wanna be your man
TTITLE14=Money (that압 what I want)
TTITLE15=Moonlight bay
TTITLE16=Johnny B. Goode
TTITLE17=Can앖 buy me love
TTITLE18=I should have known better
TTITLE19=And I love her
TTITLE20=If I fell
TTITLE21=Tell me why
TTITLE22=From us to you
TTITLE23=I call your name
TTITLE24=I앐 happy just to dance with you
TTITLE25=A hard day압 night
TTITLE26=Shout
TTITLE27=I forgot to remember to forget
TTITLE28=You can앖 do it
TTITLE29=Matchbox
TTITLE30=Any time at all
TTITLE31=THings we said today
TTITLE32=When I get home
TTITLE33=You know what to do
TTITLE34=Slow down
TTITLE35=I앏l be back
EXTD=
EXTT0=
EXTT1=
EXTT2=
EXTT3=
EXTT4=
EXTT5=
EXTT6=
EXTT7=
EXTT8=
EXTT9=
EXTT10=
EXTT11=
EXTT12=
EXTT13=
EXTT14=
EXTT15=
EXTT16=
EXTT17=
EXTT18=
EXTT19=
EXTT20=
EXTT21=
EXTT22=
EXTT23=
EXTT24=
EXTT25=
EXTT26=
EXTT27=
EXTT28=
EXTT29=
EXTT30=
EXTT31=
EXTT32=
EXTT33=
EXTT34=
EXTT35=
PLAYORDER=
